<svg xmlns="http://www.w3.org/2000/svg" width="70" height="70" viewBox="0.014 0.014 258.972 258.972" fill="grey">
  <path d="M70.142,102.574l28.284,28.284a20,20,0,0,1,0,28.284L70.142,187.426a20,20,0,0,1-28.284,0L13.574,159.142a20,20,0,0,1,0-28.284l28.284-28.284A20,20,0,0,1,70.142,102.574Zm148,1,28.284,28.284a20,20,0,0,1,0,28.284l-28.284,28.284a20,20,0,0,1-28.284,0l-28.284-28.284a20,20,0,0,1,0-28.284l28.284-28.284A20,20,0,0,1,218.142,103.574Zm-74-76,28.284,28.284a20,20,0,0,1,0,28.284l-28.284,28.284a20,20,0,0,1-28.284,0L87.574,84.142a20,20,0,0,1,0-28.284l28.284-28.284A20,20,0,0,1,144.142,27.574Zm-5.65,149.782,17.568,17.569a12.424,12.424,0,0,1,0,17.569l-17.568,17.569a12.423,12.423,0,0,1-17.568,0l-17.569-17.569a12.424,12.424,0,0,1,0-17.569l17.569-17.569A12.421,12.421,0,0,1,138.492,177.356Z"/>
</svg>
